<svg width="16" height="16" viewBox="0 0 16 16" fill="none" xmlns="http://www.w3.org/2000/svg">
<rect width="16" height="16" rx="2" fill="#FEFEFE"/>
<path d="M4.868 4C5.42 4 5.908 4.112 6.332 4.336C6.764 4.552 7.104 4.9 7.352 5.38C7.608 5.86 7.736 6.492 7.736 7.276C7.736 8.06 7.608 8.692 7.352 9.172C7.104 9.652 6.764 10 6.332 10.216C5.908 10.432 5.42 10.54 4.868 10.54C4.316 10.54 3.824 10.432 3.392 10.216C2.96 10 2.62 9.652 2.372 9.172C2.124 8.692 2 8.06 2 7.276C2 6.492 2.124 5.86 2.372 5.38C2.62 4.9 2.96 4.552 3.392 4.336C3.824 4.112 4.316 4 4.868 4ZM4.868 4.24C4.492 4.24 4.184 4.48 3.944 4.96C3.712 5.432 3.596 6.204 3.596 7.276C3.596 8.348 3.712 9.12 3.944 9.592C4.184 10.064 4.492 10.3 4.868 10.3C5.236 10.3 5.54 10.064 5.78 9.592C6.02 9.12 6.14 8.348 6.14 7.276C6.14 6.204 6.02 5.432 5.78 4.96C5.54 4.48 5.236 4.24 4.868 4.24Z" fill="black"/>
<path d="M14.1425 4.168V4.42C13.9905 4.452 13.8465 4.536 13.7105 4.672C13.5825 4.808 13.4585 5.048 13.3385 5.392L11.5625 10.264L11.1905 10.828L8.7185 5.092C8.5665 4.788 8.4225 4.6 8.2865 4.528C8.1505 4.456 8.0385 4.42 7.9505 4.42V4.168C8.1825 4.192 8.4225 4.212 8.6705 4.228C8.9265 4.236 9.1825 4.24 9.4385 4.24C9.7345 4.24 10.0185 4.232 10.2905 4.216C10.5705 4.2 10.8305 4.184 11.0705 4.168V4.42C10.8865 4.42 10.7225 4.432 10.5785 4.456C10.4345 4.48 10.3385 4.548 10.2905 4.66C10.2505 4.764 10.2825 4.948 10.3865 5.212L11.8865 8.872L11.7905 8.92L12.8465 6.064C12.9825 5.688 13.0385 5.384 13.0145 5.152C12.9905 4.92 12.9025 4.744 12.7505 4.624C12.5985 4.504 12.3905 4.436 12.1265 4.42V4.168C12.2545 4.176 12.3825 4.184 12.5105 4.192C12.6385 4.2 12.7625 4.208 12.8825 4.216C13.0025 4.216 13.1185 4.216 13.2305 4.216C13.3985 4.216 13.5625 4.212 13.7225 4.204C13.8905 4.196 14.0305 4.184 14.1425 4.168ZM11.5625 10.264L11.1065 11.476C11.0345 11.676 10.9545 11.844 10.8665 11.98C10.7865 12.124 10.6945 12.24 10.5905 12.328C10.4705 12.432 10.3225 12.508 10.1465 12.556C9.9785 12.604 9.7905 12.628 9.5825 12.628C9.3985 12.628 9.2185 12.596 9.0425 12.532C8.8745 12.468 8.7305 12.372 8.6105 12.244C8.4985 12.116 8.4425 11.948 8.4425 11.74C8.4425 11.516 8.5185 11.336 8.6705 11.2C8.8225 11.064 9.0305 10.996 9.2945 10.996C9.5265 10.996 9.7145 11.052 9.8585 11.164C10.0105 11.284 10.0865 11.46 10.0865 11.692C10.0865 11.844 10.0425 11.98 9.9545 12.1C9.8665 12.22 9.7425 12.312 9.5825 12.376C9.6225 12.384 9.6585 12.388 9.6905 12.388C9.7305 12.396 9.7625 12.4 9.7865 12.4C10.0185 12.4 10.2265 12.324 10.4105 12.172C10.5945 12.02 10.7425 11.78 10.8545 11.452L11.2865 10.264H11.5625Z" fill="black"/>
</svg>
