<svg width="23" height="15" viewBox="0 0 23 15" fill="none" xmlns="http://www.w3.org/2000/svg">
<path d="M22.1084 10.0317C21.9811 9.99894 21.8486 9.99168 21.7185 10.0103C21.5884 10.0289 21.4632 10.0731 21.3503 10.1403C21.2373 10.2074 21.1387 10.2962 21.0601 10.4016C20.9816 10.507 20.9247 10.6269 20.8926 10.7543C20.7095 11.4607 20.2751 12.076 19.6709 12.4851C19.0666 12.8941 18.3339 13.0688 17.6101 12.9763C16.8863 12.8838 16.221 12.5306 15.739 11.9827C15.257 11.4349 14.9913 10.7301 14.9917 10.0004V9.00043H21.9917C22.123 9.00047 22.2531 8.97463 22.3744 8.92438C22.4958 8.87414 22.606 8.80048 22.6989 8.70762C22.7917 8.61475 22.8654 8.5045 22.9156 8.38316C22.9659 8.26182 22.9917 8.13177 22.9917 8.00043C22.9917 7.34383 22.8624 6.69365 22.6111 6.08702C22.3598 5.48039 21.9915 4.92919 21.5272 4.4649C21.0629 4.00061 20.5117 3.63231 19.9051 3.38104C19.2985 3.12976 18.6483 3.00043 17.9917 3.00043C17.3351 3.00043 16.6849 3.12976 16.0783 3.38104C15.4717 3.63231 14.9205 4.00061 14.4562 4.4649C13.9919 4.92919 13.6236 5.48039 13.3723 6.08702C13.121 6.69365 12.9917 7.34383 12.9917 8.00043V10.0004C12.9913 11.2176 13.435 12.3931 14.2397 13.3064C15.0443 14.2196 16.1545 14.8079 17.3621 14.9609C18.5696 15.1138 19.7914 14.8208 20.7983 14.137C21.8052 13.4531 22.528 12.4254 22.8311 11.2465C22.8634 11.1193 22.8704 10.987 22.8516 10.857C22.8328 10.7271 22.7886 10.6022 22.7215 10.4893C22.6544 10.3765 22.5657 10.278 22.4605 10.1995C22.3553 10.121 22.2357 10.0639 22.1084 10.0317ZM17.9917 5.00043C18.7851 5.00073 19.5463 5.31413 20.1099 5.8725C20.4228 6.19254 20.6614 6.57766 20.8085 7.00043H15.176C15.3814 6.41718 15.7624 5.91181 16.2665 5.55371C16.7707 5.19562 17.3733 5.00235 17.9917 5.00043ZM15.9917 2.00043H19.9917C20.2569 2.00043 20.5113 1.89508 20.6988 1.70754C20.8863 1.52001 20.9917 1.26565 20.9917 1.00043C20.9917 0.735219 20.8863 0.480864 20.6988 0.293328C20.5113 0.105792 20.2569 0.000434951 19.9917 0.000434951H15.9917C15.7265 0.000434951 15.4721 0.105792 15.2846 0.293328C15.0971 0.480864 14.9917 0.735219 14.9917 1.00043C14.9917 1.26565 15.0971 1.52001 15.2846 1.70754C15.4721 1.89508 15.7265 2.00043 15.9917 2.00043ZM9.9097 6.71759C10.4434 6.14993 10.799 5.43832 10.9327 4.67072C11.0663 3.90312 10.9721 3.11318 10.6617 2.39855C10.3512 1.68393 9.83816 1.07593 9.18592 0.649727C8.53368 0.223523 7.77084 -0.00220908 6.9917 0.000434951H1.9917C1.86037 0.000399477 1.73032 0.0262407 1.60897 0.0764828C1.48763 0.126725 1.37738 0.200383 1.28451 0.293249C1.19165 0.386114 1.11799 0.496368 1.06775 0.617709C1.01751 0.739051 0.991664 0.869103 0.991699 1.00043V14.0004C0.991665 14.1318 1.01751 14.2618 1.06775 14.3832C1.11799 14.5045 1.19165 14.6148 1.28452 14.7076C1.37738 14.8005 1.48763 14.8741 1.60898 14.9244C1.73032 14.9746 1.86037 15.0005 1.9917 15.0004H7.4917C8.46484 15.0022 9.41222 14.6879 10.1913 14.1048C10.9704 13.5217 11.5391 12.7014 11.8118 11.7672C12.0845 10.8331 12.0465 9.83566 11.7035 8.92498C11.3604 8.01431 10.7309 7.23967 9.9097 6.71759ZM2.9917 2.00043H6.9917C7.52213 2.00043 8.03084 2.21115 8.40591 2.58622C8.78099 2.96129 8.9917 3.47 8.9917 4.00043C8.9917 4.53087 8.78099 5.03958 8.40591 5.41465C8.03084 5.78972 7.52213 6.00043 6.9917 6.00043H2.9917V2.00043ZM7.4917 13.0004H2.9917V8.00043H7.4917C8.15474 8.00043 8.79063 8.26383 9.25947 8.73267C9.72831 9.20151 9.9917 9.83739 9.9917 10.5004C9.9917 11.1635 9.72831 11.7994 9.25947 12.2682C8.79063 12.737 8.15474 13.0004 7.4917 13.0004Z" fill="black"/>
</svg>
