<svg width="199" height="12" viewBox="0 0 199 12" fill="none" xmlns="http://www.w3.org/2000/svg">
<path d="M10.2422 6.07812C10.2422 4.41146 9.8724 3.07552 9.13281 2.07031C8.39323 1.0651 7.42969 0.5625 6.24219 0.5625C5.17448 0.5625 4.29427 1.01042 3.60156 1.90625C2.90885 2.79688 2.5625 3.97396 2.5625 5.4375C2.5625 7.10417 2.92969 8.4349 3.66406 9.42969C4.40365 10.4193 5.36979 10.9141 6.5625 10.9141C7.63542 10.9141 8.51562 10.474 9.20312 9.59375C9.89583 8.70833 10.2422 7.53646 10.2422 6.07812ZM12 5.75781C12 7.36198 11.4557 8.72396 10.3672 9.84375C9.28385 10.9583 7.96094 11.5156 6.39844 11.5156C4.7474 11.5156 3.40104 10.974 2.35938 9.89062C1.31771 8.80729 0.796875 7.42969 0.796875 5.75781C0.796875 4.17448 1.34635 2.82031 2.44531 1.69531C3.54948 0.565104 4.86719 0 6.39844 0C8.02865 0 9.36979 0.546875 10.4219 1.64062C11.474 2.72917 12 4.10156 12 5.75781Z" fill="black"/>
<path d="M29.2784 0.476562H29.0363C28.7238 0.476562 28.4581 0.580729 28.2394 0.789062C28.0258 0.992188 27.6795 1.47656 27.2003 2.24219L24.6378 6.32031V8.47656C24.6378 9.58073 24.7185 10.2839 24.88 10.5859C25.0415 10.888 25.3878 11.0391 25.9191 11.0391C25.9816 11.0391 26.0363 11.0391 26.0831 11.0391C26.13 11.0339 26.1821 11.0286 26.2394 11.0234V11.3594C25.6196 11.3281 25.1378 11.3073 24.7941 11.2969C24.4555 11.2865 24.1639 11.2812 23.9191 11.2812C23.6743 11.2812 23.38 11.2865 23.0363 11.2969C22.6925 11.3073 22.2133 11.3281 21.5988 11.3594V11.0234C21.6508 11.0286 21.7003 11.0339 21.7472 11.0391C21.7941 11.0391 21.8514 11.0391 21.9191 11.0391C22.4451 11.0391 22.7889 10.888 22.9503 10.5859C23.117 10.2839 23.2003 9.58073 23.2003 8.47656V6.39844L20.7159 2.07812L20.5988 1.86719C20.0675 0.940104 19.6274 0.476562 19.2784 0.476562C19.2159 0.476562 19.1691 0.479167 19.1378 0.484375C19.1066 0.484375 19.0727 0.486979 19.0363 0.492188V0.15625C19.1404 0.161458 19.3019 0.171875 19.5206 0.1875C20.1613 0.223958 20.6404 0.242188 20.9581 0.242188C21.2498 0.242188 21.5649 0.236979 21.9034 0.226562C22.242 0.210938 22.6196 0.190104 23.0363 0.164062V0.492188C22.9321 0.481771 22.8514 0.476562 22.7941 0.476562C22.5076 0.476562 22.2889 0.518229 22.1378 0.601562C21.992 0.684896 21.9191 0.804688 21.9191 0.960938C21.9191 1.09635 21.9529 1.2526 22.0206 1.42969C22.0935 1.60677 22.2185 1.84896 22.3956 2.15625L24.3488 5.60156L24.4738 5.39844C25.4008 3.90365 26.0675 2.79688 26.4738 2.07812C26.63 1.80729 26.7368 1.59635 26.7941 1.44531C26.8514 1.28906 26.88 1.1276 26.88 0.960938C26.88 0.804688 26.8175 0.684896 26.6925 0.601562C26.5675 0.518229 26.3878 0.476562 26.1534 0.476562C26.1014 0.476562 26.0232 0.481771 25.9191 0.492188V0.15625C25.9868 0.161458 26.0961 0.169271 26.2472 0.179688C26.9086 0.221354 27.4113 0.242188 27.755 0.242188C28.0154 0.242188 28.4269 0.221354 28.9894 0.179688C29.1196 0.169271 29.2159 0.161458 29.2784 0.15625V0.476562Z" fill="black"/>
<path d="M40.3928 11.3594C40.3564 11.3594 40.2991 11.3568 40.2209 11.3516C39.2834 11.3047 38.5933 11.2812 38.1506 11.2812C37.7131 11.2812 37.0256 11.3047 36.0881 11.3516C36.0048 11.3568 35.9475 11.3594 35.9163 11.3594V11.0234C35.9423 11.0286 35.9735 11.0339 36.01 11.0391C36.0517 11.0391 36.1272 11.0391 36.2366 11.0391C36.7314 11.0391 37.0543 10.8854 37.2053 10.5781C37.3564 10.2708 37.4319 9.57031 37.4319 8.47656V2.71875C37.4319 1.75 37.3616 1.13542 37.2209 0.875C37.0803 0.609375 36.7522 0.476562 36.2366 0.476562C36.1689 0.476562 36.1194 0.479167 36.0881 0.484375C36.0569 0.484375 36.0256 0.486979 35.9944 0.492188V0.15625C36.0308 0.161458 36.0829 0.164062 36.1506 0.164062C37.109 0.216146 37.7756 0.242188 38.1506 0.242188C38.536 0.242188 39.1923 0.21875 40.1194 0.171875C40.2027 0.166667 40.2678 0.161458 40.3147 0.15625V0.492188C40.2834 0.486979 40.2522 0.484375 40.2209 0.484375C40.1897 0.479167 40.1402 0.476562 40.0725 0.476562C39.5569 0.476562 39.2288 0.609375 39.0881 0.875C38.9475 1.13542 38.8772 1.75 38.8772 2.71875V8.47656C38.8772 9.57031 38.9527 10.2708 39.1038 10.5781C39.2548 10.8854 39.5777 11.0391 40.0725 11.0391C40.1819 11.0391 40.2548 11.0391 40.2913 11.0391C40.3329 11.0339 40.3668 11.0286 40.3928 11.0234V11.3594Z" fill="black"/>
<path d="M60.0853 0.492188C60.028 0.481771 59.9681 0.476562 59.9056 0.476562C59.7181 0.476562 59.5462 0.513021 59.39 0.585938C59.239 0.658854 59.1244 0.757812 59.0462 0.882812C58.916 1.07552 58.8301 1.5625 58.7884 2.34375C58.7468 3.125 58.7259 4.31771 58.7259 5.92188V9.11719C58.7259 9.5599 58.7416 10.0026 58.7728 10.4453C58.8041 10.888 58.8405 11.2188 58.8822 11.4375H58.3197C58.2884 11.3698 58.2259 11.2734 58.1322 11.1484C58.0384 11.0234 57.916 10.8698 57.765 10.6875L50.5619 2.07812V5.60156C50.5619 7.42448 50.5801 8.67448 50.6166 9.35156C50.6582 10.0286 50.7468 10.4583 50.8822 10.6406C50.9916 10.7812 51.1244 10.8828 51.2806 10.9453C51.4369 11.0078 51.6504 11.0391 51.9212 11.0391C52.0306 11.0391 52.1374 11.0339 52.2416 11.0234V11.3594C52.1426 11.3542 51.9942 11.3464 51.7962 11.3359C51.1035 11.2995 50.6114 11.2812 50.3197 11.2812C50.0801 11.2812 49.6296 11.2995 48.9681 11.3359C48.7494 11.3464 48.5879 11.3542 48.4837 11.3594V11.0234C48.515 11.0286 48.5489 11.0339 48.5853 11.0391C48.6218 11.0391 48.6739 11.0391 48.7416 11.0391C48.9239 11.0391 49.0905 11.0052 49.2416 10.9375C49.3978 10.8646 49.5176 10.7656 49.6009 10.6406C49.7311 10.4479 49.8171 9.96094 49.8587 9.17969C49.9004 8.39844 49.9212 7.20573 49.9212 5.60156V2.5625C49.9212 1.77083 49.8379 1.22656 49.6712 0.929688C49.5098 0.627604 49.1947 0.476562 48.7259 0.476562C48.6686 0.476562 48.5879 0.481771 48.4837 0.492188V0.15625C48.4994 0.161458 48.5254 0.164062 48.5619 0.164062C49.1765 0.216146 49.6348 0.242188 49.9369 0.242188C50.0827 0.242188 50.2676 0.234375 50.4916 0.21875C50.7207 0.203125 50.9577 0.184896 51.2025 0.164062C51.2858 0.367188 51.3978 0.575521 51.5384 0.789062C51.6843 1.0026 51.8926 1.27344 52.1634 1.60156L58.0853 8.71875V5.92188C58.0853 4.15104 58.0697 2.90885 58.0384 2.19531C58.0124 1.47656 57.9473 1.03906 57.8431 0.882812C57.7442 0.731771 57.614 0.627604 57.4525 0.570312C57.291 0.507812 57.0749 0.476562 56.8041 0.476562L56.64 0.492188V0.15625C57.1035 0.1875 57.4577 0.210938 57.7025 0.226562C57.9525 0.236979 58.1582 0.242188 58.3197 0.242188C58.502 0.242188 58.7442 0.234375 59.0462 0.21875C59.3535 0.203125 59.6999 0.184896 60.0853 0.164062V0.492188Z" fill="black"/>
<path d="M77.9341 6.07812C77.9341 4.41146 77.5643 3.07552 76.8247 2.07031C76.0851 1.0651 75.1216 0.5625 73.9341 0.5625C72.8664 0.5625 71.9862 1.01042 71.2934 1.90625C70.6007 2.79688 70.2544 3.97396 70.2544 5.4375C70.2544 7.10417 70.6216 8.4349 71.3559 9.42969C72.0955 10.4193 73.0617 10.9141 74.2544 10.9141C75.3273 10.9141 76.2075 10.474 76.895 9.59375C77.5877 8.70833 77.9341 7.53646 77.9341 6.07812ZM79.6919 5.75781C79.6919 7.36198 79.1476 8.72396 78.0591 9.84375C76.9757 10.9583 75.6528 11.5156 74.0903 11.5156C72.4393 11.5156 71.0929 10.974 70.0513 9.89062C69.0096 8.80729 68.4888 7.42969 68.4888 5.75781C68.4888 4.17448 69.0382 2.82031 70.1372 1.69531C71.2414 0.565104 72.5591 0 74.0903 0C75.7205 0 77.0617 0.546875 78.1138 1.64062C79.1658 2.72917 79.6919 4.10156 79.6919 5.75781Z" fill="black"/>
<path d="M96.4078 8.99219C96.2359 9.54427 96.1005 10 96.0016 10.3594C95.9078 10.7188 95.8297 11.0521 95.7672 11.3594C95.5641 11.3542 95.2594 11.3464 94.8531 11.3359C93.6969 11.2995 92.801 11.2812 92.1656 11.2812C91.2542 11.2812 89.9234 11.3047 88.1734 11.3516L88.0094 11.3594V11.0234C88.0354 11.0286 88.0719 11.0339 88.1188 11.0391C88.1708 11.0391 88.2411 11.0391 88.3297 11.0391C88.7932 11.0391 89.0953 10.8828 89.2359 10.5703C89.3766 10.2578 89.4469 9.5599 89.4469 8.47656V2.71875C89.4469 1.76042 89.3792 1.14844 89.2438 0.882812C89.1135 0.611979 88.8089 0.476562 88.3297 0.476562C88.262 0.476562 88.2125 0.479167 88.1813 0.484375C88.15 0.484375 88.1188 0.486979 88.0875 0.492188V0.15625C88.1708 0.161458 88.2984 0.169271 88.4703 0.179688C89.2151 0.221354 89.7802 0.242188 90.1656 0.242188C90.6031 0.242188 91.2906 0.21875 92.2281 0.171875C92.3063 0.166667 92.3661 0.161458 92.4078 0.15625V0.492188C92.3557 0.481771 92.3036 0.476562 92.2516 0.476562C91.6734 0.476562 91.3063 0.625 91.15 0.921875C90.999 1.21354 90.9234 1.8125 90.9234 2.71875C90.9234 4.74479 90.9313 6.32552 90.9469 7.46094C90.9625 8.59115 90.9859 9.625 91.0172 10.5625C91.3818 10.6042 91.7229 10.6354 92.0406 10.6562C92.3635 10.6771 92.6734 10.6875 92.9703 10.6875C93.8297 10.6875 94.4703 10.5885 94.8922 10.3906C95.3141 10.1875 95.7125 9.6849 96.0875 8.88281L96.4078 8.99219Z" fill="black"/>
<path d="M114.421 0.492188C114.369 0.481771 114.316 0.476562 114.264 0.476562C114.02 0.476562 113.816 0.518229 113.655 0.601562C113.499 0.679688 113.382 0.799479 113.303 0.960938C113.236 1.09635 113.186 1.39323 113.155 1.85156C113.124 2.30469 113.108 3.02083 113.108 4V7.03906C113.108 8.50781 112.754 9.63542 112.046 10.4219C111.337 11.2083 110.316 11.6016 108.983 11.6016C107.52 11.6016 106.392 11.1901 105.6 10.3672C104.814 9.54427 104.421 8.38281 104.421 6.88281C104.421 6.44531 104.428 5.78125 104.444 4.89062C104.46 3.99479 104.467 3.35156 104.467 2.96094C104.467 1.90365 104.395 1.22656 104.249 0.929688C104.108 0.627604 103.819 0.476562 103.382 0.476562C103.329 0.476562 103.275 0.481771 103.217 0.492188V0.164062C103.389 0.169271 103.717 0.184896 104.202 0.210938C104.686 0.231771 105.025 0.242188 105.217 0.242188C105.488 0.242188 105.97 0.223958 106.663 0.1875C106.975 0.177083 107.215 0.169271 107.382 0.164062V0.492188C107.329 0.481771 107.275 0.476562 107.217 0.476562C106.728 0.476562 106.405 0.604167 106.249 0.859375C106.098 1.10938 106.022 1.6224 106.022 2.39844V7.03906C106.022 8.22656 106.303 9.15104 106.866 9.8125C107.428 10.4688 108.186 10.7969 109.139 10.7969C110.28 10.7969 111.111 10.4714 111.632 9.82031C112.158 9.16927 112.421 8.13542 112.421 6.71875C112.421 4.97396 112.402 3.65885 112.366 2.77344C112.329 1.88281 112.267 1.33073 112.178 1.11719C112.074 0.856771 111.947 0.684896 111.796 0.601562C111.645 0.518229 111.426 0.476562 111.139 0.476562C111.077 0.476562 111.027 0.479167 110.991 0.484375C110.96 0.484375 110.931 0.486979 110.905 0.492188V0.15625C111.087 0.166667 111.387 0.184896 111.803 0.210938C112.22 0.231771 112.559 0.242188 112.819 0.242188C113.074 0.242188 113.345 0.234375 113.632 0.21875C113.918 0.203125 114.181 0.184896 114.421 0.164062V0.492188Z" fill="black"/>
<path d="M134.183 0.492188C134.126 0.481771 134.066 0.476562 134.004 0.476562C133.816 0.476562 133.644 0.513021 133.488 0.585938C133.337 0.658854 133.223 0.757812 133.144 0.882812C133.014 1.07552 132.928 1.5625 132.887 2.34375C132.845 3.125 132.824 4.31771 132.824 5.92188V9.11719C132.824 9.5599 132.84 10.0026 132.871 10.4453C132.902 10.888 132.939 11.2188 132.98 11.4375H132.418C132.387 11.3698 132.324 11.2734 132.23 11.1484C132.137 11.0234 132.014 10.8698 131.863 10.6875L124.66 2.07812V5.60156C124.66 7.42448 124.678 8.67448 124.715 9.35156C124.756 10.0286 124.845 10.4583 124.98 10.6406C125.09 10.7812 125.223 10.8828 125.379 10.9453C125.535 11.0078 125.749 11.0391 126.019 11.0391C126.129 11.0391 126.236 11.0339 126.34 11.0234V11.3594C126.241 11.3542 126.092 11.3464 125.894 11.3359C125.202 11.2995 124.709 11.2812 124.418 11.2812C124.178 11.2812 123.728 11.2995 123.066 11.3359C122.848 11.3464 122.686 11.3542 122.582 11.3594V11.0234C122.613 11.0286 122.647 11.0339 122.683 11.0391C122.72 11.0391 122.772 11.0391 122.84 11.0391C123.022 11.0391 123.189 11.0052 123.34 10.9375C123.496 10.8646 123.616 10.7656 123.699 10.6406C123.829 10.4479 123.915 9.96094 123.957 9.17969C123.999 8.39844 124.019 7.20573 124.019 5.60156V2.5625C124.019 1.77083 123.936 1.22656 123.769 0.929688C123.608 0.627604 123.293 0.476562 122.824 0.476562C122.767 0.476562 122.686 0.481771 122.582 0.492188V0.15625C122.598 0.161458 122.624 0.164062 122.66 0.164062C123.275 0.216146 123.733 0.242188 124.035 0.242188C124.181 0.242188 124.366 0.234375 124.59 0.21875C124.819 0.203125 125.056 0.184896 125.301 0.164062C125.384 0.367188 125.496 0.575521 125.637 0.789062C125.782 1.0026 125.991 1.27344 126.262 1.60156L132.183 8.71875V5.92188C132.183 4.15104 132.168 2.90885 132.137 2.19531C132.111 1.47656 132.045 1.03906 131.941 0.882812C131.842 0.731771 131.712 0.627604 131.551 0.570312C131.389 0.507812 131.173 0.476562 130.902 0.476562L130.738 0.492188V0.15625C131.202 0.1875 131.556 0.210938 131.801 0.226562C132.051 0.236979 132.256 0.242188 132.418 0.242188C132.6 0.242188 132.842 0.234375 133.144 0.21875C133.452 0.203125 133.798 0.184896 134.183 0.164062V0.492188Z" fill="black"/>
<path d="M148.22 6.47656L146.587 1.51562L144.751 6.47656C144.933 6.5026 145.191 6.52344 145.524 6.53906C145.863 6.55469 146.165 6.5625 146.431 6.5625C146.686 6.5625 146.988 6.55469 147.337 6.53906C147.686 6.52344 147.98 6.5026 148.22 6.47656ZM152.431 11.3594C152.342 11.3542 152.201 11.3464 152.009 11.3359C151.295 11.2995 150.769 11.2812 150.431 11.2812C150.019 11.2812 149.441 11.2995 148.696 11.3359C148.472 11.3464 148.303 11.3542 148.188 11.3594V11.0234C148.241 11.0339 148.295 11.0391 148.353 11.0391C148.696 11.0391 148.954 10.9792 149.126 10.8594C149.303 10.7396 149.392 10.5599 149.392 10.3203C149.392 10.1068 149.329 9.78646 149.204 9.35938C149.079 8.92708 148.819 8.17969 148.423 7.11719C148.142 7.10156 147.837 7.09115 147.509 7.08594C147.181 7.07552 146.821 7.07031 146.431 7.07031C146.035 7.07031 145.675 7.07552 145.353 7.08594C145.035 7.09115 144.756 7.10156 144.517 7.11719C144.459 7.26302 144.379 7.46875 144.274 7.73438C143.738 9.13021 143.47 9.99219 143.47 10.3203C143.47 10.5599 143.556 10.7396 143.728 10.8594C143.905 10.9792 144.165 11.0391 144.509 11.0391C144.561 11.0391 144.616 11.0339 144.673 11.0234L144.665 11.3594C144.353 11.3333 144.043 11.3151 143.735 11.3047C143.433 11.2891 143.157 11.2812 142.907 11.2812C142.662 11.2812 142.386 11.2891 142.079 11.3047C141.777 11.3151 141.47 11.3333 141.157 11.3594L141.149 11.0234C141.201 11.0339 141.256 11.0391 141.313 11.0391C141.548 11.0391 141.769 10.9635 141.978 10.8125C142.191 10.6562 142.368 10.4375 142.509 10.1562C142.701 9.77604 143.079 8.8776 143.642 7.46094C144.204 6.04427 145.16 3.58333 146.509 0.078125H147.634C148.384 2.32812 149.074 4.3724 149.704 6.21094C150.339 8.04948 150.795 9.33854 151.071 10.0781C151.201 10.4271 151.358 10.6745 151.54 10.8203C151.728 10.9661 151.97 11.0391 152.267 11.0391C152.324 11.0391 152.379 11.0339 152.431 11.0234V11.3594Z" fill="black"/>
<path d="M163.787 11.3594C163.751 11.3594 163.693 11.3568 163.615 11.3516C162.678 11.3047 161.988 11.2812 161.545 11.2812C161.107 11.2812 160.42 11.3047 159.482 11.3516C159.399 11.3568 159.342 11.3594 159.311 11.3594V11.0234C159.337 11.0286 159.368 11.0339 159.404 11.0391C159.446 11.0391 159.522 11.0391 159.631 11.0391C160.126 11.0391 160.449 10.8854 160.6 10.5781C160.751 10.2708 160.826 9.57031 160.826 8.47656V2.71875C160.826 1.75 160.756 1.13542 160.615 0.875C160.475 0.609375 160.147 0.476562 159.631 0.476562C159.563 0.476562 159.514 0.479167 159.482 0.484375C159.451 0.484375 159.42 0.486979 159.389 0.492188V0.15625C159.425 0.161458 159.477 0.164062 159.545 0.164062C160.503 0.216146 161.17 0.242188 161.545 0.242188C161.93 0.242188 162.587 0.21875 163.514 0.171875C163.597 0.166667 163.662 0.161458 163.709 0.15625V0.492188C163.678 0.486979 163.647 0.484375 163.615 0.484375C163.584 0.479167 163.535 0.476562 163.467 0.476562C162.951 0.476562 162.623 0.609375 162.482 0.875C162.342 1.13542 162.272 1.75 162.272 2.71875V8.47656C162.272 9.57031 162.347 10.2708 162.498 10.5781C162.649 10.8854 162.972 11.0391 163.467 11.0391C163.576 11.0391 163.649 11.0391 163.686 11.0391C163.727 11.0339 163.761 11.0286 163.787 11.0234V11.3594Z" fill="black"/>
<path d="M176.12 11.3594C176.047 11.3542 175.941 11.349 175.8 11.3438C174.982 11.3021 174.394 11.2812 174.034 11.2812C173.649 11.2812 172.993 11.3047 172.066 11.3516C171.977 11.3568 171.915 11.3594 171.878 11.3594V11.0234C171.904 11.0286 171.941 11.0339 171.988 11.0391C172.04 11.0391 172.11 11.0391 172.198 11.0391C172.662 11.0391 172.964 10.8828 173.105 10.5703C173.245 10.2578 173.316 9.5599 173.316 8.47656V2.71875C173.316 1.76042 173.248 1.14844 173.113 0.882812C172.982 0.611979 172.678 0.476562 172.198 0.476562C172.131 0.476562 172.081 0.479167 172.05 0.484375C172.019 0.484375 171.988 0.486979 171.956 0.492188V0.164062C172.461 0.190104 172.878 0.210938 173.206 0.226562C173.534 0.236979 173.81 0.242188 174.034 0.242188C174.441 0.242188 175.076 0.216146 175.941 0.164062L176.034 0.15625V0.492188C175.982 0.481771 175.93 0.476562 175.878 0.476562C175.399 0.476562 175.092 0.611979 174.956 0.882812C174.826 1.14844 174.761 1.76042 174.761 2.71875V8.47656C174.761 9.5599 174.831 10.2578 174.972 10.5703C175.113 10.8828 175.415 11.0391 175.878 11.0391C175.946 11.0391 175.995 11.0391 176.027 11.0391C176.058 11.0339 176.089 11.0286 176.12 11.0234V11.3594ZM182.839 11.3594C182.803 11.3542 182.745 11.349 182.667 11.3438C182.136 11.3021 181.685 11.2812 181.316 11.2812C180.935 11.2812 180.438 11.3047 179.823 11.3516C179.761 11.3568 179.714 11.3594 179.683 11.3594C179.688 11.3542 179.691 11.349 179.691 11.3438C179.706 11.2969 179.714 11.25 179.714 11.2031C179.714 10.9792 179.303 10.4557 178.48 9.63281C178.198 9.35677 177.972 9.13281 177.8 8.96094L174.761 5.92188L177.636 3.03906C178.49 2.1849 178.995 1.65365 179.152 1.44531C179.313 1.23698 179.394 1.04948 179.394 0.882812C179.394 0.752604 179.331 0.653646 179.206 0.585938C179.081 0.513021 178.904 0.476562 178.675 0.476562C178.623 0.476562 178.545 0.481771 178.441 0.492188V0.15625C178.545 0.161458 178.706 0.171875 178.925 0.1875C179.56 0.223958 180.037 0.242188 180.355 0.242188C180.683 0.242188 181.141 0.221354 181.73 0.179688C181.907 0.169271 182.037 0.161458 182.12 0.15625V0.492188C182.063 0.481771 182.008 0.476562 181.956 0.476562C181.623 0.476562 181.282 0.596354 180.933 0.835938C180.589 1.07031 180.076 1.51042 179.394 2.15625L176.198 5.20312L180.597 9.60156C181.18 10.1797 181.607 10.5651 181.878 10.7578C182.154 10.9453 182.448 11.0391 182.761 11.0391C182.813 11.0391 182.839 11.0339 182.839 11.0234V11.3594Z" fill="black"/>
<path d="M198.368 9.03906C198.216 9.49219 198.089 9.90885 197.985 10.2891C197.881 10.6641 197.795 11.0208 197.727 11.3594C197.534 11.3542 197.248 11.3464 196.868 11.3359C195.664 11.2995 194.698 11.2812 193.969 11.2812C192.948 11.2812 191.558 11.3047 189.797 11.3516L189.649 11.3594V11.0234C189.675 11.0286 189.711 11.0339 189.758 11.0391C189.81 11.0391 189.881 11.0391 189.969 11.0391C190.427 11.0391 190.727 10.875 190.868 10.5469C191.013 10.2135 191.086 9.55208 191.086 8.5625V2.71875C191.086 1.76042 191.019 1.14844 190.883 0.882812C190.753 0.611979 190.448 0.476562 189.969 0.476562C189.901 0.476562 189.852 0.479167 189.821 0.484375C189.789 0.484375 189.758 0.486979 189.727 0.492188V0.164062L189.977 0.171875C191.831 0.270833 193.162 0.320312 193.969 0.320312C194.375 0.320312 194.888 0.307292 195.508 0.28125C196.133 0.25 196.792 0.208333 197.485 0.15625C197.485 0.473958 197.498 0.815104 197.524 1.17969C197.55 1.53906 197.591 1.95573 197.649 2.42969L197.328 2.47656C197.115 1.7474 196.849 1.29948 196.532 1.13281C196.219 0.966146 195.578 0.882812 194.61 0.882812C194.261 0.882812 193.901 0.888021 193.532 0.898438C193.167 0.903646 192.844 0.914062 192.563 0.929688C192.552 1.38802 192.545 1.92188 192.539 2.53125C192.534 3.13542 192.532 4.0625 192.532 5.3125C192.657 5.32812 192.782 5.34115 192.907 5.35156C193.037 5.35677 193.177 5.35938 193.328 5.35938H194.766C195.511 5.35938 196.019 5.28646 196.289 5.14062C196.565 4.99479 196.724 4.71094 196.766 4.28906L197.086 4.32031C197.05 4.50781 197.021 4.71615 197 4.94531C196.985 5.16927 196.977 5.41406 196.977 5.67969C196.977 5.9349 196.985 6.1849 197 6.42969C197.021 6.67448 197.05 6.92969 197.086 7.19531L196.766 7.23438C196.724 6.72396 196.565 6.38281 196.289 6.21094C196.019 6.03906 195.511 5.95312 194.766 5.95312H193.328C193.172 5.95312 193.029 5.95833 192.899 5.96875C192.774 5.97396 192.651 5.98438 192.532 6C192.532 6.69792 192.537 7.47656 192.547 8.33594C192.563 9.19531 192.584 9.9349 192.61 10.5547C192.969 10.5964 193.339 10.6302 193.719 10.6562C194.099 10.6771 194.448 10.6875 194.766 10.6875C195.766 10.6875 196.482 10.5807 196.914 10.3672C197.352 10.1484 197.729 9.66927 198.047 8.92969L198.368 9.03906Z" fill="black"/>
</svg>
